<?xml version="1.0" encoding="utf-8"?>
<!-- Generator: Adobe Illustrator 18.1.1, SVG Export Plug-In . SVG Version: 6.00 Build 0)  -->
<svg version="1.1" id="Layer_1" xmlns="http://www.w3.org/2000/svg" xmlns:xlink="http://www.w3.org/1999/xlink" x="0px" y="0px"
	 viewBox="0 0 300 300" enable-background="new 0 0 300 300" xml:space="preserve">
<path display="none" fill="#70C9BE" d="M183.3-1305.5v100h-800c-55.2,0-100,44.8-100,100v600c0,55.2,44.8,100,100,100h400
	c165.7,0,300-134.3,300-300v0c0-165.7-134.3-300-300-300h-300v400h300c55.2,0,100-44.8,100-100v0c0-55.2-44.8-100-100-100h-200v-100
	h200c110.5,0,200,89.5,200,200v0c0,110.5-89.5,200-200,200h-400v-600h400c220.9,0,400,179.1,400,400v0c0,220.9-179.1,400-400,400
	h-400c-110.5,0-200-89.5-200-200v-600c0-110.5,89.5-200,200-200H183.3z"/>
<g>
	<rect x="-272.2" y="-2055.2" fill="none" stroke="#000000" stroke-miterlimit="10" width="80.8" height="80.8"/>
	<rect x="-191.4" y="-2055.2" fill="none" stroke="#000000" stroke-miterlimit="10" width="80.8" height="80.8"/>
	<rect x="-272.2" y="-1974.4" fill="none" stroke="#000000" stroke-miterlimit="10" width="161.6" height="161.6"/>
	<rect x="-110.6" y="-2055.2" fill="none" stroke="#000000" stroke-miterlimit="10" width="242.4" height="242.4"/>
	<rect x="-272.2" y="-2459.2" fill="none" stroke="#000000" stroke-miterlimit="10" width="404" height="404"/>
	<rect x="-918.7" y="-2459.2" fill="none" stroke="#000000" stroke-miterlimit="10" width="646.4" height="646.4"/>
	<circle fill="none" stroke="#000000" stroke-miterlimit="10" cx="-595.4" cy="-2136" r="323.2"/>
	<circle fill="none" stroke="#000000" stroke-miterlimit="10" cx="-70.2" cy="-2257.2" r="202"/>
	<circle fill="none" stroke="#000000" stroke-miterlimit="10" cx="10.6" cy="-1934" r="121.2"/>
	<circle fill="none" stroke="#000000" stroke-miterlimit="10" cx="-231.8" cy="-2014.8" r="40.4"/>
	<circle fill="none" stroke="#000000" stroke-miterlimit="10" cx="-151" cy="-2014.8" r="40.4"/>
	<circle fill="none" stroke="#000000" stroke-miterlimit="10" cx="-191.4" cy="-1893.6" r="80.8"/>
</g>
<g>
	<circle fill="none" stroke="#000000" stroke-miterlimit="10" cx="781.6" cy="-2056.7" r="323.2"/>
	<circle fill="none" stroke="#000000" stroke-miterlimit="10" cx="781.6" cy="-2056.7" r="202"/>
	<circle fill="none" stroke="#000000" stroke-miterlimit="10" cx="781.6" cy="-2056.7" r="121.2"/>
	<circle fill="none" stroke="#000000" stroke-miterlimit="10" cx="781.6" cy="-2056.7" r="40.4"/>
	<circle fill="none" stroke="#000000" stroke-miterlimit="10" cx="781.6" cy="-2056.7" r="40.4"/>
	<circle fill="none" stroke="#000000" stroke-miterlimit="10" cx="781.6" cy="-2056.7" r="80.8"/>
</g>
<g>
	<path fill="#2D6E36" d="M2149.9-1836.5H1748c-55.2,0-100-44.8-100-100v-401.9c0-55.2,44.8-100,100-100h401.9
		c55.2,0,100,44.8,100,100v401.9C2249.9-1881.3,2205.1-1836.5,2149.9-1836.5z"/>
	<path fill="#70C9BE" d="M2198.9-2387.5v50h-400c-27.6,0-50,22.4-50,50v300c0,27.6,22.4,50,50,50h200c82.8,0,150-67.2,150-150v0
		c0-82.8-67.2-150-150-150h-150v200h150c27.6,0,50-22.4,50-50l0,0c0-27.6-22.4-50-50-50h-100v-50h100c55.2,0,100,44.8,100,100v0
		c0,55.2-44.8,100-100,100h-200v-300h200c110.5,0,200,89.5,200,200v0c0,110.5-89.5,200-200,200h-200c-55.2,0-100-44.8-100-100v-300
		c0-55.2,44.8-100,100-100H2198.9z"/>
</g>
<g>
	<path d="M1227.8-737c0.6-0.1,1.4-0.2,2.2-0.2c1.5,0,2.6,0.3,3.3,1c0.7,0.7,1.1,1.6,1.1,2.9c0,1.3-0.4,2.4-1.2,3.1
		c-0.8,0.8-2,1.2-3.6,1.2c-0.7,0-1.4,0-1.9-0.1V-737z M1228.9-729.8c0.3,0,0.6,0.1,1.1,0.1c2.2,0,3.4-1.2,3.4-3.4
		c0-1.9-1.1-3.1-3.3-3.1c-0.5,0-0.9,0-1.2,0.1V-729.8z"/>
	<path d="M1228.5-733.2h1.9v0.6h-1.2v1.8c0.2,0.1,0.5,0.2,1,0.2c1.4,0,2.3-0.9,2.3-2.4c0-1.5-0.9-2.4-2.4-2.4c-0.6,0-1,0.1-1.3,0.3
		l-0.2-0.6c0.3-0.1,0.8-0.3,1.5-0.3c2,0,3.2,1.3,3.2,3c0,0.9-0.3,1.7-0.8,2.2c-0.6,0.5-1.3,0.8-2.2,0.8c-0.8,0-1.5-0.2-1.8-0.3
		V-733.2z"/>
</g>
<g>
</g>
<path display="none" fill="#8E752D" d="M1219.4-715.1L1219.4-715.1c0,5.5,4.5,10,10,10h0c5.5,0,10-4.5,10-10l0,0c0-5.5-4.5-10-10-10
	h0C1223.9-725.1,1219.4-720.6,1219.4-715.1z M1229.4-707.6L1229.4-707.6c-4.1,0-7.5-3.4-7.5-7.5v0c0-4.1,3.4-7.5,7.5-7.5h0
	c4.1,0,7.5,3.4,7.5,7.5l0,0C1236.9-710.9,1233.5-707.6,1229.4-707.6z"/>
<g>
	<circle fill="none" stroke="#000000" stroke-width="0.1" stroke-miterlimit="10" cx="1267.4" cy="-717.6" r="13.5"/>
	<circle fill="none" stroke="#000000" stroke-width="0.1" stroke-miterlimit="10" cx="1267.4" cy="-717.6" r="8.4"/>
	<circle fill="none" stroke="#000000" stroke-width="0.1" stroke-miterlimit="10" cx="1267.4" cy="-717.6" r="5.1"/>
	<circle fill="none" stroke="#000000" stroke-width="0.1" stroke-miterlimit="10" cx="1267.4" cy="-717.6" r="1.7"/>
	<circle fill="none" stroke="#000000" stroke-width="0.1" stroke-miterlimit="10" cx="1267.4" cy="-717.6" r="1.7"/>
	<circle fill="none" stroke="#000000" stroke-width="0.1" stroke-miterlimit="10" cx="1267.4" cy="-717.6" r="3.4"/>
</g>
<g display="none">
	<path display="inline" fill="#8E752D" d="M1219.4-725.1v20h10c5.5,0,10-4.5,10-10l0,0c0-5.5-4.5-10-10-10H1219.4z M1229.4-707.6
		h-7.5v-15h7.5c4.1,0,7.5,3.4,7.5,7.5l0,0C1236.9-710.9,1233.5-707.6,1229.4-707.6z"/>
	<rect x="1226.9" y="-716.3" display="inline" fill="#8E752D" width="7.5" height="2.5"/>
	<rect x="1226.9" y="-715.3" display="inline" fill="#8E752D" width="2.5" height="10"/>
</g>
<g>
	<path fill="#8E752D" d="M1749.9-1733.5v500h250c138.1,0,250-111.9,250-250v0c0-138.1-111.9-250-250-250H1749.9z M1999.9-1296
		h-187.5v-375h187.5c103.6,0,187.5,83.9,187.5,187.5v0C2187.4-1379.9,2103.4-1296,1999.9-1296z"/>
	<rect x="1937.4" y="-1514.7" fill="#8E752D" width="187.5" height="62.5"/>
	<rect x="1937.4" y="-1489.7" fill="#8E752D" width="62.5" height="250"/>
</g>
<g>
	<rect x="2414.4" y="-955.4" fill="#1E1E1E" stroke="#2B348E" stroke-miterlimit="10" width="62.5" height="250"/>
	<g>
		<path fill="#1E1E1E" stroke="#2B348E" stroke-miterlimit="10" d="M2476.9-1199.1h-62.5v62.5h62.5c103.6,0,187.5,83.9,187.5,187.5
			v0c0,103.6-83.9,187.5-187.5,187.5h-62.5v62.5h62.5c138.1,0,250-111.9,250-250v0C2726.9-1087.2,2615-1199.1,2476.9-1199.1z"/>
		<polygon fill="#1E1E1E" stroke="#2B348E" stroke-miterlimit="10" points="2351.9,-761.6 2289.4,-761.6 2289.4,-1136.6 
			2351.9,-1136.6 2351.9,-1199.1 2226.9,-1199.1 2226.9,-699.1 2351.9,-699.1 		"/>
	</g>
	<g>
		<rect x="2414.4" y="-980.4" fill="#1E1E1E" stroke="#2B348E" stroke-miterlimit="10" width="62.5" height="62.5"/>
		<rect x="2539.4" y="-980.4" fill="#1E1E1E" width="62.5" height="62.5"/>
	</g>
</g>
<g>
	<rect x="-209.5" y="-1061" fill="#2C3E50" width="681.8" height="681.8"/>
	<g>
		<path fill="#FFFFFF" d="M148.1-970.1H65.6v62.5h82.5c92.5,0,167.5,75,167.5,167.5v40c0,92.5-75,167.5-167.5,167.5h-20v-193.7h0
			v-25H65.6v25v37.5v156.2h0v62.5h82.5c127,0,230-103,230-230v-40C378.1-867.1,275.1-970.1,148.1-970.1z"/>
		<path fill="#FFFFFF" d="M-88.7-470.1h123v-62.5h-62.5v-375h62.5v-62.5h-123c-1.1,0-2,0.9-2,2v496C-90.7-471-89.8-470.1-88.7-470.1
			z"/>
		<rect x="159.3" y="-751.3" fill="#FFFFFF" width="62.5" height="62.5"/>
	</g>
</g>
<g>
	<path fill="#2C3E50" d="M-763.9-970.1h-82.5v62.5h82.5c92.5,0,167.5,75,167.5,167.5v40c0,92.5-75,167.5-167.5,167.5h-20v-193.7h0
		v-25h-62.5v25v37.5v156.2h0v62.5h82.5c127,0,230-103,230-230v-40C-533.9-867.1-636.9-970.1-763.9-970.1z"/>
	<path fill="#2C3E50" d="M-1000.7-470.1h123v-62.5h-62.5v-375h62.5v-62.5h-123c-1.1,0-2,0.9-2,2v496
		C-1002.7-471-1001.8-470.1-1000.7-470.1z"/>
	<rect x="-752.7" y="-751.3" fill="#2C3E50" width="62.5" height="62.5"/>
</g>
<g>
	<path fill="#A33838" d="M1229-725h-3.3v2.5h3.3c3.7,0,6.6,3,6.6,6.6v1.6c0,3.7-3,6.6-6.6,6.6h-0.8v-7.7l0,0v-1h-2.5v1v1.5v6.2l0,0
		v2.5h3.3c5,0,9.1-4.1,9.1-9.1v-1.6C1238.1-720.9,1234-725,1229-725z"/>
	<path fill="#A33838" d="M1219.5-705.2h4.9v-2.5h-2.5v-14.9h2.5v-2.5h-4.9c0,0-0.1,0-0.1,0.1L1219.5-705.2
		C1219.4-705.2,1219.4-705.2,1219.5-705.2z"/>
	<rect x="1230.7" y="-716.3" fill="#A33838" width="2.5" height="2.5"/>
</g>
<g>
	<path fill="#FFFFFF" d="M154.2,0l-49.5,0v37.5h49.5c55.5,0,100.5,45,100.5,100.5v24c0,55.5-45,100.5-100.5,100.5h-12V146.2h0v-15
		h-37.5v15v22.5v93.7h0V300h49.5c76.2,0,138-61.8,138-138v-24C292.2,61.8,230.5,0,154.2,0z"/>
	<path fill="#FFFFFF" d="M12.2,300H86v-37.5H48.5v-225H86V0H12.2C11.5,0,11,0.5,11,1.2v297.6C11,299.4,11.5,300,12.2,300z"/>
	<rect x="161" y="131.2" fill="#FFFFFF" width="37.5" height="37.5"/>
</g>
</svg>
