<?xml version="1.0" encoding="utf-8"?>
<!-- Generator: Adobe Illustrator 18.1.1, SVG Export Plug-In . SVG Version: 6.00 Build 0)  -->
<svg version="1.1" id="Layer_1" xmlns="http://www.w3.org/2000/svg" xmlns:xlink="http://www.w3.org/1999/xlink" x="0px" y="0px"
	 viewBox="0 0 300 300" enable-background="new 0 0 300 300" xml:space="preserve">
<g>
	<path id="logo-part2" fill="#7dbde8" d="M154.2,0l-49.5,0v37.5h49.5c55.5,0,100.5,45,100.5,100.5v24c0,55.5-45,100.5-100.5,100.5h-12V146.2h0v-15
		h-37.5v15v22.5v93.7h0V300h49.5c76.2,0,138-61.8,138-138v-24C292.2,61.8,230.5,0,154.2,0z"/>
	<path id="logo-part1" fill="#7dbde8" d="M12.2,300H86v-37.5H48.5v-225H86V0H12.2C11.5,0,11,0.5,11,1.2v297.6C11,299.4,11.5,300,12.2,300z"/>
	<rect id="logo-part3" x="161" y="131.2" fill="#7dbde8" width="37.5" height="37.5"/>
</g>
</svg>
